<?xml version="1.0" standalone="no"?>
<!DOCTYPE svg PUBLIC "-//W3C//DTD SVG 20010904//EN"
 "http://www.w3.org/TR/2001/REC-SVG-20010904/DTD/svg10.dtd">
<svg version="1.0" xmlns="http://www.w3.org/2000/svg"
 width="64.000000pt" height="30.000000pt" viewBox="0 0 64.000000 64.000000"
 preserveAspectRatio="xMidYMid meet">

<g transform="translate(0.000000,64.000000) scale(0.100000,-0.100000)"
fill="#000000" stroke="none">
<path d="M300 480 l0 -160 -60 0 -60 0 0 -30 0 -30 140 0 140 0 0 30 c0 30 0
30 -57 30 l-58 0 0 130 0 130 24 0 c64 0 166 -81 198 -159 20 -46 20 -156 0
-202 -41 -99 -136 -161 -245 -161 -81 0 -125 17 -180 67 -89 80 -112 210 -58
318 18 35 26 65 24 88 l-3 34 -37 -50 c-39 -53 -68 -137 -68 -196 0 -135 98
-264 229 -303 69 -20 113 -20 182 0 132 39 229 168 229 304 0 94 -58 207 -133
259 -46 31 -133 61 -179 61 l-28 0 0 -160z"/>
</g>
</svg>
