<svg xmlns="http://www.w3.org/2000/svg" viewBox="0 0 195 50.25"><defs><style>.cls-1{fill:#514b50;}.cls-2{fill:#ffcc03;}.cls-3{fill:#388cc9;}.cls-4{fill:#78b440;}.cls-5{fill:#9b3212;stroke:#9b3212;stroke-miterlimit:10;stroke-width:0px;}</style></defs><g id="Camada_2" data-name="Camada 2"><g id="Camada_1-2" data-name="Camada 1"><path class="cls-1" d="M139.31,48V46.8a3.23,3.23,0,0,0,1.91.62,2,2,0,0,0,1.52-.51,2.54,2.54,0,0,0,.47-1.7V38h1.12V45.3a4.49,4.49,0,0,1-.26,1.61,2.16,2.16,0,0,1-.73,1,3,3,0,0,1-.94.46,3.84,3.84,0,0,1-1,.14A4,4,0,0,1,139.31,48Z"/><path class="cls-1" d="M146.57,45.13V40.64h1.13v4.54a2.48,2.48,0,0,0,.51,1.73,2.63,2.63,0,0,0,3.22,0,2.44,2.44,0,0,0,.53-1.73V40.64h1.12v4.49a3.44,3.44,0,0,1-.85,2.5,3.73,3.73,0,0,1-4.81,0A3.49,3.49,0,0,1,146.57,45.13Z"/><path class="cls-1" d="M154.64,42.75a2.11,2.11,0,0,1,.68-1.59,2.9,2.9,0,0,1,2.07-.65,4.67,4.67,0,0,1,2,.47v1.11a3.61,3.61,0,0,0-1.87-.53c-1.17,0-1.75.4-1.75,1.19a.75.75,0,0,0,.42.65,4.6,4.6,0,0,0,1,.41,11.65,11.65,0,0,1,1.23.39,2.4,2.4,0,0,1,1.05.77,2.19,2.19,0,0,1,.43,1.38,1.88,1.88,0,0,1-.76,1.59,3.39,3.39,0,0,1-2.09.57,4.79,4.79,0,0,1-2.35-.59V46.74a4.34,4.34,0,0,0,2.3.68c1.18,0,1.77-.35,1.77-1.07a1.08,1.08,0,0,0-.42-.9,2.87,2.87,0,0,0-1-.49l-1.23-.36a2.3,2.3,0,0,1-1-.65A1.68,1.68,0,0,1,154.64,42.75Z"/><path class="cls-1" d="M161.27,46.06V37.69h1.13v3.13a5.88,5.88,0,0,1,1.91-.31,5.21,5.21,0,0,1,1,.09,3.08,3.08,0,0,1,.95.36,2.77,2.77,0,0,1,.84.68,3.22,3.22,0,0,1,.56,1.13,5.56,5.56,0,0,1,.22,1.66,5.94,5.94,0,0,1-.24,1.78A3.47,3.47,0,0,1,167,47.4a2.55,2.55,0,0,1-.84.69,3.07,3.07,0,0,1-.9.34,4.8,4.8,0,0,1-.85.08A4.65,4.65,0,0,1,163,48.3a2.86,2.86,0,0,1-.93-.48,2.16,2.16,0,0,1-.51-.65,2.23,2.23,0,0,1-.23-.63A2.59,2.59,0,0,1,161.27,46.06Zm1.13.07c0,.9.69,1.36,2,1.36a3.08,3.08,0,0,0,.78-.1A2.34,2.34,0,0,0,166,47a1.84,1.84,0,0,0,.59-.94,5.42,5.42,0,0,0,.21-1.63,3.38,3.38,0,0,0-.58-2.19,2.32,2.32,0,0,0-1.86-.68,4.94,4.94,0,0,0-1.91.39Z"/><path class="cls-1" d="M169.59,48.39V41.26a9.63,9.63,0,0,1,3.76-.74v1.06a11.06,11.06,0,0,0-2.64.4v6.41Z"/><path class="cls-1" d="M174,46a2.2,2.2,0,0,1,.2-.94,2.28,2.28,0,0,1,.47-.67,2.51,2.51,0,0,1,.72-.44,5.93,5.93,0,0,1,.76-.27,6.7,6.7,0,0,1,.8-.13l.65-.05H178l1.24.08a1.81,1.81,0,0,0-.57-1.51,2.68,2.68,0,0,0-1.69-.45,6.71,6.71,0,0,0-2.27.37V40.91a6.92,6.92,0,0,1,2.33-.4,3.44,3.44,0,0,1,2.48.82,3.16,3.16,0,0,1,.86,2.41v2.32a2.25,2.25,0,0,1-.34,1.27,2,2,0,0,1-.89.76,4.63,4.63,0,0,1-1,.33,4.88,4.88,0,0,1-.93.09,6.27,6.27,0,0,1-.74,0,4.19,4.19,0,0,1-.85-.21,3.14,3.14,0,0,1-.82-.41,2.1,2.1,0,0,1-.6-.73A2.44,2.44,0,0,1,174,46Zm1.13,0c0,1,.7,1.45,2.1,1.45h0c1.37,0,2.06-.47,2.06-1.41V44.57a8.4,8.4,0,0,0-1.38-.09C176,44.48,175.1,45,175.1,46Z"/><path class="cls-1" d="M181.75,42.75a2.11,2.11,0,0,1,.68-1.59,2.9,2.9,0,0,1,2.07-.65,4.64,4.64,0,0,1,2,.47v1.11a3.61,3.61,0,0,0-1.87-.53c-1.16,0-1.75.4-1.75,1.19a.75.75,0,0,0,.43.65,4.42,4.42,0,0,0,1,.41,11.65,11.65,0,0,1,1.23.39,2.37,2.37,0,0,1,1,.77,2.13,2.13,0,0,1,.43,1.38,1.88,1.88,0,0,1-.76,1.59,3.39,3.39,0,0,1-2.09.57,4.73,4.73,0,0,1-2.34-.59V46.74a4.29,4.29,0,0,0,2.3.68c1.18,0,1.76-.35,1.76-1.07a1.08,1.08,0,0,0-.42-.9,2.87,2.87,0,0,0-1-.49l-1.23-.36a2.3,2.3,0,0,1-1-.65A1.68,1.68,0,0,1,181.75,42.75Z"/><path class="cls-1" d="M188.5,39.28V38h1.24v1.24Zm.06,9.11h1.12V40.64h-1.12Z"/><path class="cls-1" d="M191.93,48.39V37.7h1.12V48.39Z"/><path class="cls-2" d="M125.39,48.23h0a1.86,1.86,0,0,1-.7-2.56l4.41-7.58a1.88,1.88,0,0,1,2.57-.69h0a1.87,1.87,0,0,1,.7,2.56L128,47.54A1.88,1.88,0,0,1,125.39,48.23Z"/><path class="cls-3" d="M136.08,48.23h0a1.89,1.89,0,0,1-2.58-.69L129.1,40a1.87,1.87,0,0,1,.69-2.56h0a1.9,1.9,0,0,1,2.58.69l4.4,7.58A1.87,1.87,0,0,1,136.08,48.23Z"/><path class="cls-4" d="M132.29,38l0-.06-.07-.09s0,0-.05,0a.23.23,0,0,0-.07-.07l-.06-.07-.06-.05-.09-.07-.06,0-.1-.07-.06,0-.1,0-.08,0-.09,0a.17.17,0,0,0-.1,0l-.07,0-.11,0h-.7l-.11,0-.07,0a.19.19,0,0,0-.1,0l-.08,0-.09,0-.1,0-.06,0-.1.07-.06,0-.08.07-.06.05a.46.46,0,0,0-.07.07.46.46,0,0,0-.07.07l-.05,0-.07.09,0,.06a.36.36,0,0,0-.07.1,1.83,1.83,0,0,0,0,1.89l1.63,2.81L132.37,40a1.85,1.85,0,0,0,0-1.89Z"/><path class="cls-1" d="M60,45.92V42.65h.85v5.53H60v-.94H60a1.82,1.82,0,0,1-.61.72,1.76,1.76,0,0,1-1,.29,1.89,1.89,0,0,1-.93-.23,1.52,1.52,0,0,1-.63-.69,2.54,2.54,0,0,1-.23-1.17V42.65h.85V46.1a1.34,1.34,0,0,0,.34,1,1.15,1.15,0,0,0,.87.36,1.59,1.59,0,0,0,.65-.16,1.46,1.46,0,0,0,.55-.5A1.49,1.49,0,0,0,60,45.92Z"/><path class="cls-1" d="M62.42,48.18V42.65h.82v.86h.07a1.34,1.34,0,0,1,.56-.68,1.63,1.63,0,0,1,.92-.25,1.58,1.58,0,0,1,.92.25,1.67,1.67,0,0,1,.57.68h.06a1.61,1.61,0,0,1,.64-.68,1.93,1.93,0,0,1,1-.25,1.64,1.64,0,0,1,1.21.46,1.92,1.92,0,0,1,.47,1.44v3.7h-.85v-3.7a1.07,1.07,0,0,0-.33-.88,1.29,1.29,0,0,0-.79-.26,1.2,1.2,0,0,0-.91.35,1.3,1.3,0,0,0-.32.89v3.6h-.86V44.39a1,1,0,0,0-.31-.76,1.11,1.11,0,0,0-.79-.29,1.15,1.15,0,0,0-.62.18,1.37,1.37,0,0,0-.63,1.2v3.46Z"/><path class="cls-1" d="M72.87,48.31a2.32,2.32,0,0,1-1-.2,1.75,1.75,0,0,1-.68-.58,1.63,1.63,0,0,1-.25-.92,1.35,1.35,0,0,1,.19-.77,1.26,1.26,0,0,1,.5-.47,2.58,2.58,0,0,1,.69-.25c.26-.06.51-.1.77-.14l.82-.1a1.34,1.34,0,0,0,.46-.11.31.31,0,0,0,.15-.29v0a1.16,1.16,0,0,0-.29-.83,1.23,1.23,0,0,0-.88-.29,1.59,1.59,0,0,0-1,.26,1.56,1.56,0,0,0-.48.57l-.81-.29a2,2,0,0,1,.58-.78,2.19,2.19,0,0,1,.79-.4,3.25,3.25,0,0,1,1.46,0,2,2,0,0,1,.68.26,1.41,1.41,0,0,1,.54.59,2.1,2.1,0,0,1,.22,1v3.64h-.85v-.75h0a1.27,1.27,0,0,1-.28.38,1.63,1.63,0,0,1-.54.35A2,2,0,0,1,72.87,48.31Zm.13-.77a1.7,1.7,0,0,0,.85-.19,1.53,1.53,0,0,0,.53-.51,1.31,1.31,0,0,0,.18-.66V45.4a.65.65,0,0,1-.24.12l-.42.09-.46.06-.35,0a3.77,3.77,0,0,0-.62.13,1.07,1.07,0,0,0-.46.29.71.71,0,0,0-.18.51.75.75,0,0,0,.33.67A1.46,1.46,0,0,0,73,47.54Z"/><path class="cls-1" d="M82.14,48.29a2.67,2.67,0,0,1-1.38-.35,2.41,2.41,0,0,1-.89-1,3.29,3.29,0,0,1-.31-1.48,3.38,3.38,0,0,1,.31-1.5,2.5,2.5,0,0,1,.88-1,2.36,2.36,0,0,1,1.31-.36,2.8,2.8,0,0,1,.85.14,2.13,2.13,0,0,1,.77.47,2.28,2.28,0,0,1,.55.85,3.55,3.55,0,0,1,.2,1.3v.36H80.17V45h3.4a1.79,1.79,0,0,0-.19-.84,1.4,1.4,0,0,0-1.32-.79,1.57,1.57,0,0,0-.88.25,1.69,1.69,0,0,0-.57.65,1.94,1.94,0,0,0-.2.86v.49a2.31,2.31,0,0,0,.22,1.06,1.54,1.54,0,0,0,.61.65,1.77,1.77,0,0,0,.9.23,1.66,1.66,0,0,0,.61-.1,1.31,1.31,0,0,0,.47-.28,1.47,1.47,0,0,0,.31-.48l.82.23a1.84,1.84,0,0,1-.44.73,2.08,2.08,0,0,1-.75.49A3,3,0,0,1,82.14,48.29Z"/><path class="cls-1" d="M85.73,48.18V42.65h.82v.86h.08a1.34,1.34,0,0,1,.56-.68,1.6,1.6,0,0,1,.92-.25,1.58,1.58,0,0,1,.92.25,1.67,1.67,0,0,1,.57.68h.06a1.65,1.65,0,0,1,.63-.68,2,2,0,0,1,1-.25,1.67,1.67,0,0,1,1.22.46A2,2,0,0,1,93,44.48v3.7h-.85v-3.7a1,1,0,0,0-.34-.88,1.24,1.24,0,0,0-.78-.26,1.18,1.18,0,0,0-.91.35,1.3,1.3,0,0,0-.32.89v3.6h-.87V44.39a1,1,0,0,0-.3-.76,1.13,1.13,0,0,0-.79-.29,1.15,1.15,0,0,0-.62.18,1.4,1.4,0,0,0-.64,1.2v3.46Z"/><path class="cls-1" d="M94.56,50.25v-7.6h.82v.88h.1c.06-.1.15-.22.26-.37a1.45,1.45,0,0,1,.49-.4,1.7,1.7,0,0,1,.85-.18,2.19,2.19,0,0,1,1.23.35,2.28,2.28,0,0,1,.84,1,3.51,3.51,0,0,1,.3,1.51,3.58,3.58,0,0,1-.3,1.52,2.33,2.33,0,0,1-.83,1,2.13,2.13,0,0,1-1.22.35,1.77,1.77,0,0,1-.86-.18,1.43,1.43,0,0,1-.49-.4,3.58,3.58,0,0,1-.27-.38h-.07v2.92Zm.83-4.84a3.14,3.14,0,0,0,.19,1.11,1.64,1.64,0,0,0,.54.74,1.36,1.36,0,0,0,.86.27,1.37,1.37,0,0,0,.89-.28,1.74,1.74,0,0,0,.54-.77,2.8,2.8,0,0,0,.19-1.07,2.93,2.93,0,0,0-.18-1,1.64,1.64,0,0,0-.54-.74,1.4,1.4,0,0,0-.9-.28,1.43,1.43,0,0,0-.87.26,1.61,1.61,0,0,0-.54.73A3,3,0,0,0,95.39,45.41Z"/><path class="cls-1" d="M100.74,48.18V42.65h.83v.84h.05a1.33,1.33,0,0,1,.55-.67,1.63,1.63,0,0,1,.9-.26h.44v.86l-.19,0a1.77,1.77,0,0,0-.33,0,1.53,1.53,0,0,0-.72.16,1.28,1.28,0,0,0-.68,1.13v3.5Z"/><path class="cls-1" d="M106.67,48.29a2.67,2.67,0,0,1-1.38-.35,2.41,2.41,0,0,1-.89-1,3.29,3.29,0,0,1-.31-1.48,3.38,3.38,0,0,1,.31-1.5,2.56,2.56,0,0,1,.87-1,2.38,2.38,0,0,1,1.31-.36,2.82,2.82,0,0,1,.86.14,2.13,2.13,0,0,1,.77.47,2.28,2.28,0,0,1,.55.85,3.55,3.55,0,0,1,.2,1.3v.36H104.7V45h3.4a1.79,1.79,0,0,0-.19-.84,1.4,1.4,0,0,0-1.33-.79,1.56,1.56,0,0,0-.87.25,1.69,1.69,0,0,0-.57.65,1.94,1.94,0,0,0-.2.86v.49a2.31,2.31,0,0,0,.22,1.06,1.48,1.48,0,0,0,.61.65,1.77,1.77,0,0,0,.9.23,1.7,1.7,0,0,0,.61-.1,1.31,1.31,0,0,0,.47-.28,1.47,1.47,0,0,0,.31-.48l.82.23a1.84,1.84,0,0,1-.44.73,2.12,2.12,0,0,1-.76.49A2.89,2.89,0,0,1,106.67,48.29Z"/><path class="cls-1" d="M114.18,43.89l-.76.21a1.74,1.74,0,0,0-.21-.37,1.06,1.06,0,0,0-.38-.3,1.35,1.35,0,0,0-.61-.12,1.39,1.39,0,0,0-.84.24.67.67,0,0,0-.34.58.61.61,0,0,0,.23.5,1.8,1.8,0,0,0,.72.31l.82.2a2.23,2.23,0,0,1,1.11.55,1.31,1.31,0,0,1,.36,1,1.43,1.43,0,0,1-.27.85,1.83,1.83,0,0,1-.76.59,2.81,2.81,0,0,1-1.13.21,2.53,2.53,0,0,1-1.4-.36,1.62,1.62,0,0,1-.7-1.08l.8-.2a1.15,1.15,0,0,0,.44.67,1.47,1.47,0,0,0,.85.22,1.56,1.56,0,0,0,.94-.25.73.73,0,0,0,.36-.61.63.63,0,0,0-.21-.48,1.33,1.33,0,0,0-.62-.3l-.92-.21a2.22,2.22,0,0,1-1.12-.56,1.36,1.36,0,0,1-.35-1,1.39,1.39,0,0,1,.26-.83,1.83,1.83,0,0,1,.73-.57,2.64,2.64,0,0,1,1-.2,2.11,2.11,0,0,1,1.3.36A2,2,0,0,1,114.18,43.89Z"/><path class="cls-1" d="M117.2,48.31a2.32,2.32,0,0,1-1-.2,1.75,1.75,0,0,1-.68-.58,1.63,1.63,0,0,1-.25-.92,1.35,1.35,0,0,1,.19-.77,1.26,1.26,0,0,1,.5-.47,2.58,2.58,0,0,1,.69-.25c.25-.06.51-.1.77-.14l.82-.1a1.34,1.34,0,0,0,.46-.11.3.3,0,0,0,.14-.29v0a1.12,1.12,0,0,0-.29-.83,1.18,1.18,0,0,0-.87-.29,1.59,1.59,0,0,0-1,.26,1.7,1.7,0,0,0-.49.57l-.8-.29a1.86,1.86,0,0,1,.58-.78,2.19,2.19,0,0,1,.79-.4,3.25,3.25,0,0,1,1.46,0,2,2,0,0,1,.68.26,1.56,1.56,0,0,1,.54.59,2.22,2.22,0,0,1,.22,1v3.64h-.86v-.75h0a1.32,1.32,0,0,1-.29.38,1.49,1.49,0,0,1-.53.35A2,2,0,0,1,117.2,48.31Zm.13-.77a1.72,1.72,0,0,0,.85-.19,1.53,1.53,0,0,0,.53-.51,1.3,1.3,0,0,0,.17-.66V45.4a.52.52,0,0,1-.23.12l-.42.09-.46.06-.36,0a3.65,3.65,0,0,0-.61.13,1.11,1.11,0,0,0-.47.29.85.85,0,0,0,.16,1.18A1.46,1.46,0,0,0,117.33,47.54Z"/><path d="M166.1,30.44h-3a.72.72,0,0,1-.22,0c0,.24.07.49.1.73,0,0,.14,0,.21,0a20.18,20.18,0,0,0,2.9-.08c0-.19,0-.42,0-.65Z"/><path class="cls-5" d="M0,19.35c.07-.53.15-1.05.2-1.58A20.07,20.07,0,0,1,4.63,7.5C5.3,6.68,6.07,6,6.79,5.17l.13.08c0,1.48,0,3,0,4.45a.74.74,0,0,1-.18.38,16.26,16.26,0,0,0-3.29,7.77,16.62,16.62,0,0,0,2.06,11,17,17,0,0,0,9.15,7.67,17.16,17.16,0,0,0,16.74-2.9A17.1,17.1,0,0,0,36,28a16,16,0,0,0,1.59-5.19A17.12,17.12,0,0,0,36,12.89a17.41,17.41,0,0,0-5-6A18.1,18.1,0,0,0,23.1,3.42h-.27c-.24,0-.47,0-.73,0v17h.56c2.07,0,4.13,0,6.2,0,.43,0,.58.12.57.56,0,1.07,0,2.14,0,3.25H11.68V20.47H19V.19L19.54,0h2l1.7.2a20.39,20.39,0,0,1,8,2.8,19.83,19.83,0,0,1,4.13,3.34,20.25,20.25,0,0,1,4.43,7.09,20.55,20.55,0,0,1,1.13,5.38,20.23,20.23,0,0,1-6.68,16.72,19.64,19.64,0,0,1-6.6,4,22.12,22.12,0,0,1-5.81,1.22A20.27,20.27,0,0,1,7.1,35.8a20.31,20.31,0,0,1-5.2-6.86A18,18,0,0,1,.2,23c-.05-.51-.13-1-.2-1.52Z"/><path class="cls-5" d="M100.33,21.77h12.83a9.2,9.2,0,0,1-1.49,4.53,10.94,10.94,0,0,1-7.34,4.94,11.09,11.09,0,0,1-9.13-2,9.94,9.94,0,0,1-4-6.41A10.66,10.66,0,0,1,93.39,14a10.47,10.47,0,0,1,6.8-3.83,11.49,11.49,0,0,1,9.13,2.43,10.45,10.45,0,0,1,2.62,3.18c-.67,0-1.32,0-2,0a.71.71,0,0,1-.43-.29,9.55,9.55,0,0,0-13-1.91,8.36,8.36,0,0,0-3.39,5.32,9.09,9.09,0,0,0,1,6.34,8,8,0,0,0,4.18,3.72,11.8,11.8,0,0,0,3.52.77,9.19,9.19,0,0,0,4.26-.88,9.4,9.4,0,0,0,4-3.33,19.68,19.68,0,0,0,1-2h-.81c-3.07,0-6.15,0-9.22,0-.49,0-.72-.12-.66-.64C100.36,22.53,100.33,22.17,100.33,21.77Z"/><path class="cls-5" d="M195,20.73a10.56,10.56,0,0,1-9.77,10.66A10.73,10.73,0,1,1,195,20.73Zm-19.88.05a9,9,0,1,0,18-.59,9,9,0,0,0-18,.59Z"/><path class="cls-5" d="M139.72,25.14c.56,0,1.06,0,1.54,0,.14,0,.33.24.37.39a6.07,6.07,0,0,0,1,2.48,4,4,0,0,0,2.52,1.55,4.5,4.5,0,0,0,4.71-1.83,3.87,3.87,0,0,0-2-6c-1.39-.47-2.82-.83-4.2-1.33a4.69,4.69,0,0,1-3.34-3.75c-.47-3.1.87-5.7,4.33-6.53a5.85,5.85,0,0,1,5.5,1.32,5.43,5.43,0,0,1,1.59,2.94c.08.38.14.77.22,1.22a9.91,9.91,0,0,1-1.55,0c-.18,0-.34-.35-.44-.57-.28-.61-.48-1.26-.78-1.85a2.76,2.76,0,0,0-2.11-1.35,4.68,4.68,0,0,0-3.13.45,3.85,3.85,0,0,0-1.81,3.94,3.36,3.36,0,0,0,2.48,2.64c1.37.51,2.81.85,4.19,1.34a5.17,5.17,0,0,1,3.59,5.1,5.7,5.7,0,0,1-3.26,5.37,6.32,6.32,0,0,1-6.85-.46A5.57,5.57,0,0,1,139.85,26C139.83,25.72,139.77,25.46,139.72,25.14Z"/><path class="cls-5" d="M84.24,12.34V10.68H80.85v1.66h.79v17h-.79V31h3.39V29.36h-.79V29q0-8.18,0-16.34a3.28,3.28,0,0,1,0-.34Z"/><path class="cls-5" d="M158.13,10.42v2.36h1.7l.07-.62c1,0,2,0,3,0,.53,0,.65.17.64.67q0,8,0,16.05v.51h-.68v1.79h3.23V29.38h-.74V12.21H169l.05.58h1.71V10.42Z"/><path class="cls-5" d="M73.78,17.86a8.75,8.75,0,0,0-3.18-5.32,10.22,10.22,0,0,0-6.39-2.16c-2.34,0-4.69,0-7,0h-.65v2h.73V29.16h-.73v2a84.53,84.53,0,0,0,9.71-.32A9,9,0,0,0,72.39,27a11.22,11.22,0,0,0,1.7-6.31A13.86,13.86,0,0,0,73.78,17.86Zm-1.57,3.35a8.24,8.24,0,0,1-2.7,6.24,6.88,6.88,0,0,1-4,1.7c-2.09.17-4.19.15-6.35.21V12.17l.59,0c1.57,0,3.15-.07,4.72,0a8,8,0,0,1,5.69,2.51A7.45,7.45,0,0,1,72,18.47,13.28,13.28,0,0,1,72.21,21.21Z"/><path class="cls-5" d="M132.48,22.27V19.15h-1.72v.62h-.64c-2.39,0-4.79,0-7.18,0-.48,0-.64-.12-.63-.61,0-2.17,0-4.34,0-6.5,0-.16,0-.32,0-.49h8.41v.58h1.72V10.41H119.79v1.76h.74V29.26h-.74v1.9h11.93a1.52,1.52,0,0,0,.48,0c.13-.05.31-.2.31-.31,0-.72,0-1.44,0-2.18h-1.76l-.05.61h-8.4c0-2.4,0-4.75,0-7.1,0-.48.14-.62.62-.62,2.36,0,4.72,0,7.08,0h.75v.72Z"/></g></g></svg>